Coordinates
version=1
nRows=26
nColumns=24
inDegrees=yes

Units are S.I. units (second, meters, Newtons, ...)
If the header above contains a line with 'inDegrees', this indicates whether rotational values are in degrees (yes) or radians (no).

endheader
time	pelvis_tilt	pelvis_list	pelvis_rotation	pelvis_tx	pelvis_ty	pelvis_tz	hip_flexion_r	hip_adduction_r	hip_rotation_r	knee_angle_r	ankle_angle_r	subtalar_angle_r	mtp_angle_r	hip_flexion_l	hip_adduction_l	hip_rotation_l	knee_angle_l	ankle_angle_l	subtalar_angle_l	mtp_angle_l	lumbar_extension	lumbar_bending	lumbar_rotation
1.5	7.190073045467885	1.8772350831299027	-0.7869703091886464	0.6101884482379835	1.0521410504030442	-0.0447880067364184	37.84556666173138	-14.444881497530123	-14.043618296445892	-114.99604842748829	-13.47997267462865	-1.2142342059120486e-05	-2.89832724388588e-10	-15.547413101904759	8.70840781778465	3.1247865940261335	-17.73992017281803	9.07094441969306	5.835581033403215e-07	-1.4437823199448185e-15	-14.72113997651838	-7.430806036509184	-10.787811637494432
1.517	6.781100753817634	4.337996544213748	1.7668955776824946	0.612837800209652	1.0305805836174862	-0.05154912764836382	48.68512421682774	-15.50098896528473	-13.7704020103847	-93.69367661016315	-17.886557253573038	-1.2166578728604873e-05	3.032069037459765e-10	-34.308637318028126	11.524075563454321	9.443547687684887	-17.5755013760882	15.391145050513002	5.868593502586091e-06	2.870791754950463e-16	-13.825272462120026	-7.500482452018755	-15.139778630401148
1.533	5.490864072285627	-1.8830609869912496	-3.6258398941771266	0.590680723546213	1.02447033183232	0.0020658937958568865	1.8715871869959209	-3.4897884126929077	-4.73803536265861	-48.26863985017593	2.807650433985306	-1.9499518495790886e-06	-1.5391813327912496e-10	3.4497647447367807	0.9203192223097483	-1.1668210420854777	-3.3738837772222396	2.0641528637219237	-1.1376372792872782e-06	8.583805603208211e-16	-15.7380084646713	-3.1534949929554106	-1.9691445322474854
1.55	5.132136540250485	-1.7710366348799862	-0.25450387835063304	0.5978410072795419	1.0165910468502302	0.015799987014776404	5.23531258142547	-0.14656930073235763	0.5453778607315467	-42.03654851084259	8.52687632406188	-3.7917822186519193e-06	6.179714226891729e-10	-1.5301110422906499	-0.705976139227432	0.8044082145809004	-14.543561642674087	1.055870801099315	2.6487110201797187e-06	4.785521527518325e-16	-14.896925218481822	1.0162149173024226	-4.784840950885415
1.567	5.9878769707227315	1.1470815987722267	3.7891857017829995	0.5859325556502676	1.0548837877001787	-0.013954378233976796	34.42082341713955	-5.537136242478688	-11.232541036921582	-48.771717616858346	2.096804881813553	-1.079163965644036e-05	1.8159799650796968e-10	-16.1033029033336	4.126318309528834	3.570476139624054	-21.72201121931176	12.498040654250422	8.624735657665775e-07	-2.2798579969562937e-15	-16.443595627329493	-0.4514599937874564	-10.241637643022528
1.583	6.664048183041073	-0.1287866950965031	-1.5777586239317074	0.5934854567541042	1.0529092223698042	-0.007050045960622706	13.910475576589723	-6.823343786967642	-7.996853896386814	-72.72900533674213	0.1642440533337559	-6.594543654016651e-06	5.912315955834087e-10	3.1626735315316585	2.799451394280292	-1.8134197582249345	-17.427725293876296	5.815597717495088	-3.9262002001706954e-06	2.1743519857068062e-16	-16.676381696347555	-4.151220714974506	-4.375664557965937
1.6	5.567278880432466	-3.8753421845428946	-4.184893411429246	0.5894591531524092	1.0382709442320863	0.027699953166830504	-10.254868501405422	0.7255761872076305	-3.1326467504444224	-46.62292520439702	5.253047234840042	-1.0015882859095483e-06	-5.177854580536212e-10	20.290346681991522	-3.344545904368077	-5.804186478358863	-11.941446172370588	-1.8869249788331377	-2.3418225561077445e-06	1.2950855189270795e-15	-16.738019934385044	-0.08813179071087474	2.9886093632847155
1.617	5.978416965499437	-2.5194330461339276	-1.7782880636454248	0.594880897564802	1.039632994038741	-0.011100182382177328	14.10006400916248	-4.3708360478155965	-5.39250356914326	-75.6799315010042	0.5372727701417255	-2.46741832744663e-06	-9.106578442598923e-10	-0.12770279103201965	1.651467611582757	0.7635865142028238	-7.025466688260616	1.3456938234365126	5.534501318522489e-07	1.4209475241116588e-15	-15.678356366152608	-2.0969358430362854	-4.951806521429051
1.633	5.344162800212305	0.11610140316643669	1.0667983858044285	0.588708459268717	1.0391697937839477	-0.0008240017616517256	18.92568652439128	-3.3836139047856095	-8.284252199572824	-40.01554923408631	-2.070981285591848	-2.3557683101126194e-06	-1.5931696303461362e-10	-5.877550197355944	1.7920541958152594	-0.24864834708531547	-18.45602487454777	7.843974973410141	-2.079469798755448e-06	8.751750107954579e-16	-15.650537487919012	-1.578312218573409	-5.834211842744054
1.65	4.51802674510558	-3.257235310666454	2.3634325232764937	0.5634009912510137	1.0531903587032678	-0.009556606421508481	27.31273158926421	0.3098993127676537	-12.261371015340972	-27.705893714966056	10.391823598250488	-6.833623767910269e-06	5.344537143926667e-10	-10.793698997501767	0.10276751563918118	0.9964012497921633	3.446869479274431	9.386180705663126	-3.077726059595066e-07	-2.713986244428722e-16	-16.77559678612142	3.094807566181773	-6.7537174944630385
1.667	4.682198020964098	1.9576032966150774	3.333283053395371	0.5685455797419912	1.0319819095023932	-0.03855400905927649	43.01652339534675	-6.727739126027549	-13.62613278541628	-19.575166911133405	-2.054795485270984	-4.199493627591149e-06	3.8837634012051534e-10	-33.627193002962855	7.092819247615392	7.057757887774449	1.569888183932183	18.663688887389622	-1.1687393334292094e-07	1.4746757349878004e-15	-15.903888148341386	-3.3268435527946383	-12.719929397278834
1.683	5.786038596050462	4.682012967708937	6.621406850648921	0.5800400036812576	1.0513386577784876	-0.031313952030986	51.723994575107255	-8.587918228518681	-17.27724934728239	-25.515093736487845	-5.662603022571122	-9.817568296554415e-06	-1.8163030952646333e-10	-32.84936409485275	8.160806051652177	4.017225749520558	-25.777546175434452	17.523023490202686	9.431853284712231e-07	7.27211669698172e-17	-16.094365529187055	-2.6349485947207576	-14.789795611254387
1.7	4.405620488689488	-1.6896325986143474	-3.2272745109636265	0.574192681067631	1.0223144712928163	-0.0020783283824226083	5.8560833256209985	-2.7787186148605274	-6.771629827743209	-23.76475093484125	4.797187118198213	-2.1101430520620026e-06	9.990044290718118e-10	-1.8452202754667066	1.4290735370028473	-1.922687057969648	7.814398422797939	5.699337164309384	-2.4133918080395975e-06	-8.283753842309346e-17	-15.894660713596197	-2.6554315158091093	-2.0744830086791266
1.717	4.191727403557099	-2.5872101994263157	-1.377732400845741	0.5626896319431643	1.0274079232429056	0.013549642740363388	4.524422663778925	1.0279086586487356	-8.904931947602611	2.595074717019017	7.999275572664013	-5.46589141809328e-06	-5.879075893857783e-10	-1.3606146948489695	-0.606376762386116	-4.822257826181145	14.599771917143308	4.869065500503774	2.0422105203872896e-07	1.3045835687835875e-15	-16.937580326675196	1.5687243230507186	-0.7146395817603786
1.733	4.103578301326339	1.2515751961632464	-0.10905470492374791	0.5672004840997913	1.004838279045112	-0.013298156372823186	18.641131376969078	-3.504014528074607	-7.2444364428326775	9.083100201706358	3.489895572151864	-1.900032750606952e-06	9.140949887117978e-10	-23.653114895884187	5.018908628423173	3.1363272403172235	14.578889431669191	13.378396084206582	3.6918347603935906e-07	2.1784662455537527e-15	-15.883783716707498	-3.0734289429037434	-7.234258346591402
1.75	5.528665472794395	1.0047598889290108	1.0327877299447783	0.5754680268885001	1.0402440579377752	-0.03155667872008598	33.4889320764493	-7.200523170410339	-14.82825796158781	-36.18270337377602	-3.687346336848751	-7.0512463750095805e-06	8.365768748511521e-10	-21.78280110152998	6.9869689324087005	1.7407120539103949	5.3481953211000475	11.286317910106241	1.8443975736610032e-06	3.064513346507238e-16	-16.24801287107176	-3.3744885054785296	-9.358117931725943
1.767	4.822276832807958	-2.4301550008466637	-3.3025063032238684	0.5717009747932124	1.0332789226199208	-0.002886431580059346	4.594868499129053	-1.1861772800166324	-3.9375015714649217	-29.173740392854526	12.799111533498486	-1.3569519164104128e-06	7.070461877854199e-10	1.4446368025500114	1.5148363165322838	-1.5397507034347768	7.474674419912789	3.6679747910198133	-3.0468001130455993e-06	-4.1498535154551687e-16	-16.69015922515609	-2.2633102151132407	-2.207554770715058
1.783	4.165924629214714	-0.3582791080423704	-0.8108652256498118	0.579273204209258	1.0093360413363015	0.019412929392248125	2.1934613842831823	0.5002352772462713	-1.6764425392901936	3.1525902343407624	6.469551155282556	-3.085113266611326e-07	-6.063323192212256e-10	-4.417117465414126	0.19446308108661725	-0.3765653996321916	-5.373424780722871	6.969900261123628	1.5621506011245964e-07	1.1825067935472672e-15	-15.711866577984706	-0.33528410786208607	-2.479387571427716
1.8	4.713709704888198	4.298266204011158	-0.19021061374008152	0.5830191962042515	1.0091405588994335	-0.013579071744748664	20.686301520448573	-7.60117168643768	-6.915542577425991	-9.432195735362152	-8.2611351192648	4.4093913458449144e-07	5.228919488482238e-10	-20.831808299289815	7.00749145493056	3.2237149510800585	-6.806455106013436	15.989309004598251	-3.291368246293334e-06	1.4512086382892141e-16	-15.152699263528463	-7.179285602048262	-7.734142736120799
1.817	4.12120340062753	-2.407069196012962	-3.5121664471520733	0.566712809145265	1.0206428250570434	0.044412809109754064	-19.77701727706505	4.335499169568929	2.675253226796875	14.85011564124946	16.30196227717916	1.8737269146057446e-06	-1.1133502462907732e-09	18.010153081259123	-4.199373774477748	-7.919658289984403	-0.12357299576764014	1.0342291120255656	-6.612708865772279e-06	9.101499806171269e-16	-17.55228939725704	0.49730902678274225	4.155427221932704
1.833	4.574526948059484	-5.596813695658815	-4.282042966060745	0.5670704743196934	1.0222807400191896	0.037858168719358334	-20.08575945179228	5.542514707333062	3.16172768719437	-9.380316569816216	18.787692702442516	-9.44455750302413e-07	-9.569884932293187e-11	17.37031948750596	-5.719734611137976	-7.268922543114654	19.768491818295296	-0.9031407500616808	-4.344519195071457e-06	-1.3732461147481835e-15	-17.69766051764571	2.983843635273997	4.103085228141994
1.85	4.108557114981094	2.427954776650019	5.087738638247467	0.5685683912798201	1.0187331287917996	-0.007456911749670966	30.797444728092547	-1.245268551862262	-6.688941003817541	19.567695013407963	7.688312166566908	-1.2822753048298803e-06	3.312537294148834e-10	-28.864173501394692	4.021234004154219	5.4366948918965665	-10.342305479723128	16.42148142185067	1.344767772990011e-06	-2.9910250605200524e-16	-15.950360638293853	-0.11343941404874824	-11.231202872312169
1.867	4.394752919872442	4.564826952616858	4.684779261546435	0.5801441454045373	0.9872420215250785	-0.019571079650088714	35.59163873756145	-5.451070817189324	-3.8705735680152835	12.314867994353548	-3.0590261500601583	-2.4822794899147824e-06	1.8256001301946546e-10	-44.4514638593688	7.520059374263818	9.904177929211471	0.6582093925735943	20.69056006045676	5.349358575561869e-06	-9.67960983495363e-16	-14.71015381124671	-2.5646454329924384	-14.561351320542775
1.883	5.165991560183817	1.3854559645389248	1.1533229063441344	0.5832612820228804	1.0163432099989482	-0.02593554942593069	29.131401103669226	-6.429382893204753	-8.056833501731976	-32.870741624982394	-3.125839342082707	-3.2389116085219135e-06	2.229587074258091e-10	-25.859966730832667	6.069170039877041	6.173771684287662	1.8609476082849028	14.05620450163261	2.3547178176867568e-06	-9.103616676626738e-18	-15.375901544561577	-3.691033693798694	-10.400282688282875
1.9	4.416391547893906	0.8712795122902766	2.191094060235809	0.5933703941909877	1.02365560412991	0.00017347898078076934	21.31818807591277	-2.230663159132149	-5.610478386677399	-26.83100320345895	2.5529064995884303	1.2707260971252843e-08	-9.638960924166486e-10	-11.90291031530242	2.095913025711003	5.001683232861583	-32.11516115509726	8.855244467799103	8.674532779511489e-07	-3.1893375703954594e-15	-14.445744700368058	-1.4225066119267082	-8.055068432504996
1.917	4.1958824608279714	3.1520304390754563	3.087633211255986	0.5930724142723299	0.9946504747625851	-0.028151686438060226	37.63057504529014	-7.968967539924398	-6.473234592131704	-26.281165907353376	-7.974578476147738	-5.765662905078631e-06	-2.655553868295774e-10	-39.30043179223092	7.5751404955361545	11.544907421206936	-3.5449831007384116	17.28574477628907	7.100448205378998e-06	5.543335387634358e-16	-13.276911798956135	-3.170764201373279	-14.092574309108187
